<svg xmlns="http://www.w3.org/2000/svg" width="12.948" height="23.949" viewBox="0 0 12.948 23.949">
  <g id="facebook-logo" transform="translate(-22.077)">
    <path id="Path_289" data-name="Path 289" d="M34.538,0,31.432,0c-3.489,0-5.744,2.313-5.744,5.894V8.612H22.565a.488.488,0,0,0-.488.489v3.937a.488.488,0,0,0,.488.488h3.123v9.935a.488.488,0,0,0,.488.488h4.074a.488.488,0,0,0,.488-.488V13.526H34.39a.488.488,0,0,0,.488-.488V9.1a.489.489,0,0,0-.489-.489H30.739v-2.3c0-1.107.264-1.669,1.706-1.669h2.092a.488.488,0,0,0,.488-.488V.493A.489.489,0,0,0,34.538,0Z"/>
  </g>
</svg>
