<svg xmlns="http://www.w3.org/2000/svg" width="24.098" height="23.047" viewBox="0 0 24.098 23.047">
  <path id="LinkedIn" d="M24.1,23.679v8.912H18.938V24.277c0-2.089-.747-3.515-2.617-3.515a2.827,2.827,0,0,0-2.651,1.9,3.535,3.535,0,0,0-.172,1.259V32.6H8.33s.069-14.082,0-15.541H13.5v2.2c-.01.016-.024.034-.034.05H13.5v-.05a5.131,5.131,0,0,1,4.657-2.568C21.556,16.685,24.1,18.906,24.1,23.679ZM2.925,9.558a2.693,2.693,0,1,0-.068,5.371h.034a2.694,2.694,0,1,0,.034-5.371ZM.307,32.591H5.473V17.05H.307Z" transform="translate(-0.006 -9.549)" fill="#040404"/>
</svg>
