<svg xmlns="http://www.w3.org/2000/svg" width="218.532" height="35.516" viewBox="0 0 218.532 35.516">
  <g id="logo" transform="translate(-0.001 -9.383)">
    <g id="Group_376" data-name="Group 376" transform="translate(0 9.384)">
      <path id="Subtraction_11" data-name="Subtraction 11" d="M19.576,35.516a2.559,2.559,0,0,1-1.227-.342,36.573,36.573,0,0,1-3.976-2.418A2.065,2.065,0,0,1,13.4,31.29a2.534,2.534,0,0,1,.663-1.751l7.459,4.677-.207.276A2.034,2.034,0,0,1,19.576,35.516Zm5.7-.028c-2.081,0-2.906-3.253-2.914-3.286-.049-.032-5.167-3.409-7.063-4.387a3.289,3.289,0,0,1-1.458-1.309,2.177,2.177,0,0,1-.28-.961c0-.052-.007-.1-.014-.137a17.477,17.477,0,0,1-.044-2.083,3.9,3.9,0,0,1,1.723-3.484l1.531,1.606L15.9,22.735s-.008.529.034,1.431c-.031,1.394,1.79,2.431,1.808,2.442.042.025,4.282,2.481,5.668,3.35a5.5,5.5,0,0,1,1.886-.364,3.139,3.139,0,0,1,2.871,1.584,2.7,2.7,0,0,1-.15,2.791A4.13,4.13,0,0,1,25.278,35.488ZM25.51,30.4a2.079,2.079,0,1,0,2.091,2.08A2.087,2.087,0,0,0,25.51,30.4ZM9.675,33.842c-.068,0-.137,0-.206-.008-1.66-.428-2.629-1.131-2.881-2.09-.448-1.71,1.565-3.668,1.586-3.688,0-.059.369-6.175.267-8.309a3.228,3.228,0,0,1,.443-1.976,3.235,3.235,0,0,1,.927-.862l.034-.022c.3-.2.837-.52,1.588-.94a4.643,4.643,0,0,1,2.27-.639,3.237,3.237,0,0,1,1.608.389l-.625,2.128-1.615-.233a6.6,6.6,0,0,0-.925.679c-.029.025-.106.083-.194.149-.136.1-.3.231-.363.285a3.952,3.952,0,0,0-.882,2.55c0,.049-.006,4.934-.067,6.583,1.492,1.245,2.084,2.812,1.584,4.192A2.7,2.7,0,0,1,9.675,33.842ZM9.631,28.83a2.09,2.09,0,1,0,2.079,2.09A2.087,2.087,0,0,0,9.631,28.83Zm18.974.593c-1.344,0-1.868-1.516-1.873-1.532l7.632-4.39.146.311a2.138,2.138,0,0,1-.788,2.937,36.332,36.332,0,0,1-4,2.375A2.5,2.5,0,0,1,28.6,29.423ZM5.965,28.291h0l-.336-.028a2.138,2.138,0,0,1-2.155-2.151,36.4,36.4,0,0,1-.056-4.654A1.917,1.917,0,0,1,5.5,19.446a2.7,2.7,0,0,1,.483.04l-.013,8.8Zm17.791-1.955a1.806,1.806,0,0,1-1.153-.363v0c0,.007.011.02.007.028s-.008.007-.017.007a8.767,8.767,0,0,1-1.88-1.131,3.9,3.9,0,0,1-1.984-3.342l2.181-.409.525,1.544a7.389,7.389,0,0,0,1.3.629,1.953,1.953,0,0,0,1.122.311,4.767,4.767,0,0,0,1.911-.5c.044-.022,4.4-2.235,5.9-2.93.561-2.459,2.105-3.336,3.364-3.336a2.708,2.708,0,0,1,2.51,1.658,3.87,3.87,0,0,1-.332,3.281,2.613,2.613,0,0,1-2.157.839,7.182,7.182,0,0,1-2.07-.345c-.054.023-5.669,2.474-7.525,3.535A3.473,3.473,0,0,1,23.756,26.336Zm11.372-8.69a2.079,2.079,0,1,0,2.08,2.079A2.081,2.081,0,0,0,35.129,17.645ZM23.951,20.2a3.231,3.231,0,0,1-1.607-.389l.625-2.129,1.615.233a7.477,7.477,0,0,0,1.153-.876c1.223-.671,1.211-2.766,1.21-2.787,0-.049.007-4.936.068-6.583-1.492-1.245-2.084-2.813-1.584-4.192a2.7,2.7,0,0,1,2.548-1.81c.069,0,.138,0,.208.008,1.66.428,2.629,1.131,2.881,2.09.448,1.71-1.566,3.668-1.586,3.687,0,.058-.369,6.168-.267,8.31.1,2.125-1.148,2.611-1.161,2.615h.014c.012,0,.02,0,.021.01.009.035-.154.22-1.865,1.176A4.648,4.648,0,0,1,23.951,20.2Zm4.415-17.64a2.079,2.079,0,1,0,2.079,2.079A2.082,2.082,0,0,0,28.366,2.565ZM19.023,20.1a4.511,4.511,0,0,1-2-.582.628.628,0,0,0-.1-.048c-.077,0-.752-2.246-.78-2.342l2.081-2.082.033.01c.618.2,1.172.386,1.529.51a2.354,2.354,0,0,1,1.561,2.862A2.479,2.479,0,0,1,19.023,20.1Zm-16.237-.86A2.813,2.813,0,0,1,.269,17.647c-.412-1.479-.35-2.585.183-3.287a2.728,2.728,0,0,1,2.3-.895,7.561,7.561,0,0,1,1.936.278c.052-.026,5.485-2.746,7.285-3.9a3.3,3.3,0,0,1,1.76-.594,1.834,1.834,0,0,1,1.073.313.009.009,0,0,1,0,0h0c.024,0,.3.141,1.852,1.068A4.337,4.337,0,0,1,19,13.744l-2.342.52L16.142,12.7a9.057,9.057,0,0,0-1.3-.521,2.047,2.047,0,0,0-1.078-.27,5.2,5.2,0,0,0-2.043.53c-.042.026-4.266,2.611-5.725,3.383C5.556,18.342,4.05,19.238,2.786,19.238Zm.081-4.963a2.079,2.079,0,1,0,2.08,2.079A2.081,2.081,0,0,0,2.867,14.275Zm29.148,1.716a2.7,2.7,0,0,1-.482-.041l.014-8.8.345.029a2.138,2.138,0,0,1,2.146,2.15,36.373,36.373,0,0,1,.056,4.654A1.918,1.918,0,0,1,32.016,15.991Zm-9.454-.412h0L21,14l.987-1.3a7.434,7.434,0,0,0-.207-1.433c.007-1.4-1.833-2.4-1.851-2.41-.043-.024-4.318-2.4-5.725-3.251a5.444,5.444,0,0,1-1.954.4A3.121,3.121,0,0,1,9.418,4.45a2.7,2.7,0,0,1,.114-2.772A4.082,4.082,0,0,1,12.276.111c2.056,0,2.927,3.2,2.936,3.235.05.032,5.229,3.32,7.139,4.262,1.857.916,1.735,2.2,1.725,2.279v0c0-.008.011-.021.02-.021.036,0,.12.215.126,2.2a3.872,3.872,0,0,1-1.661,3.512ZM11.973.989a2.079,2.079,0,1,0,2.079,2.079A2.081,2.081,0,0,0,11.973.989ZM3.409,11.935h0l-.144-.305a2.139,2.139,0,0,1,.787-2.94,36.525,36.525,0,0,1,4-2.375,2.5,2.5,0,0,1,1.116-.3c1.345,0,1.867,1.516,1.872,1.532l-7.6,4.369-.034.019Zm20.28-6.258h0l-7.6-4.313.056-.11A2.172,2.172,0,0,1,18.053,0,2.264,2.264,0,0,1,19,.213a39.341,39.341,0,0,1,4.164,2.342,2.125,2.125,0,0,1,1.06,1.457,2.35,2.35,0,0,1-.538,1.664Z" transform="translate(0 0)" fill="#d60000"/>
    </g>
    <path id="Path_300" data-name="Path 300" d="M-77.984-10.215A10.369,10.369,0,0,0-76.559-4.59a5,5,0,0,0,4.57,2.266,4.814,4.814,0,0,0,4.014-2.1A9.916,9.916,0,0,0-66.4-10.449q0-3.965-1.621-5.869a5.057,5.057,0,0,0-4-1.9,5.286,5.286,0,0,0-4.307,2.031Q-77.984-14.16-77.984-10.215Zm5.293-11.074a7.442,7.442,0,0,1,4.023,1.016,9.451,9.451,0,0,1,2.129,2.051V-28.789h3.379V0h-3.164V-2.91a7.606,7.606,0,0,1-2.91,2.793,8.33,8.33,0,0,1-3.848.859A7.792,7.792,0,0,1-79.137-2.2,11.492,11.492,0,0,1-81.7-10.02a13.5,13.5,0,0,1,2.334-7.92A7.641,7.641,0,0,1-72.691-21.289ZM-53.749-5.566a2.9,2.9,0,0,0,1.113,2.4A4.128,4.128,0,0,0-50-2.285a8.017,8.017,0,0,0,3.594-.859,4.837,4.837,0,0,0,2.93-4.668v-2.832a6.015,6.015,0,0,1-1.66.684,14.146,14.146,0,0,1-1.992.391l-2.129.273a8.142,8.142,0,0,0-2.871.8A3.119,3.119,0,0,0-53.749-5.566Zm8.516-7.109a1.91,1.91,0,0,0,1.621-1.016,3.09,3.09,0,0,0,.234-1.348,2.855,2.855,0,0,0-1.279-2.607,6.864,6.864,0,0,0-3.662-.811,4.653,4.653,0,0,0-3.906,1.484,4.884,4.884,0,0,0-.84,2.441h-3.281q.1-3.867,2.51-5.381a10.3,10.3,0,0,1,5.6-1.514,11.386,11.386,0,0,1,6,1.406,4.771,4.771,0,0,1,2.285,4.375V-3.594a1.543,1.543,0,0,0,.225.879,1.083,1.083,0,0,0,.947.332q.234,0,.527-.029t.625-.088V.1a9.791,9.791,0,0,1-1.25.293,9.135,9.135,0,0,1-1.172.059A2.891,2.891,0,0,1-42.695-.84,4.975,4.975,0,0,1-43.3-2.773,8.944,8.944,0,0,1-46.386-.332,9.546,9.546,0,0,1-50.82.7a6.593,6.593,0,0,1-4.756-1.768,5.871,5.871,0,0,1-1.846-4.424A5.7,5.7,0,0,1-55.6-10a8.642,8.642,0,0,1,4.766-1.973Zm13.258-14.082h3.555v5.84h3.34v2.871h-3.34V-4.395a1.477,1.477,0,0,0,.742,1.465,3.155,3.155,0,0,0,1.367.215q.254,0,.547-.01t.684-.049V0a7.848,7.848,0,0,1-1.26.254,11.977,11.977,0,0,1-1.416.078q-2.461,0-3.34-1.26A5.6,5.6,0,0,1-31.976-4.2V-18.047h-2.832v-2.871h2.832ZM-17.35-5.566a2.9,2.9,0,0,0,1.113,2.4,4.128,4.128,0,0,0,2.637.879,8.017,8.017,0,0,0,3.594-.859,4.837,4.837,0,0,0,2.93-4.668v-2.832a6.015,6.015,0,0,1-1.66.684,14.147,14.147,0,0,1-1.992.391l-2.129.273a8.142,8.142,0,0,0-2.871.8A3.12,3.12,0,0,0-17.35-5.566Zm8.516-7.109a1.91,1.91,0,0,0,1.621-1.016,3.09,3.09,0,0,0,.234-1.348,2.855,2.855,0,0,0-1.279-2.607,6.864,6.864,0,0,0-3.662-.811,4.653,4.653,0,0,0-3.906,1.484,4.884,4.884,0,0,0-.84,2.441h-3.281q.1-3.867,2.51-5.381a10.3,10.3,0,0,1,5.6-1.514,11.386,11.386,0,0,1,6,1.406,4.771,4.771,0,0,1,2.285,4.375V-3.594a1.543,1.543,0,0,0,.225.879,1.083,1.083,0,0,0,.947.332q.234,0,.527-.029t.625-.088V.1a9.791,9.791,0,0,1-1.25.293A9.135,9.135,0,0,1-3.659.449,2.891,2.891,0,0,1-6.3-.84,4.975,4.975,0,0,1-6.9-2.773,8.944,8.944,0,0,1-9.987-.332,9.546,9.546,0,0,1-14.42.7a6.593,6.593,0,0,1-4.756-1.768,5.871,5.871,0,0,1-1.846-4.424A5.7,5.7,0,0,1-19.206-10a8.642,8.642,0,0,1,4.766-1.973Zm20.622-8.848A9.12,9.12,0,0,1,17.539-19.8q2.217,1.719,2.666,5.918H16.787A6.31,6.31,0,0,0,15.361-17.1a4.5,4.5,0,0,0-3.574-1.279,4.939,4.939,0,0,0-4.8,3.281,13.034,13.034,0,0,0-.937,5.254A9.887,9.887,0,0,0,7.373-4.551,4.556,4.556,0,0,0,11.553-2.4,4.57,4.57,0,0,0,15.02-3.74,7.357,7.357,0,0,0,16.787-7.4h3.418q-.586,4.16-2.93,6.084a9.141,9.141,0,0,1-6,1.924,8,8,0,0,1-6.543-3,11.475,11.475,0,0,1-2.441-7.49q0-5.508,2.676-8.574A8.646,8.646,0,0,1,11.787-21.523Zm16.969.605V-7.031a5.855,5.855,0,0,0,.508,2.617,3.543,3.543,0,0,0,3.5,1.875,4.941,4.941,0,0,0,5-3.281,13.018,13.018,0,0,0,.723-4.824V-20.918H42V0h-3.32l.039-3.086a7.092,7.092,0,0,1-1.7,2.012A7.477,7.477,0,0,1,32.135.566q-4.473,0-6.094-2.988A8.9,8.9,0,0,1,25.163-6.7V-20.918ZM49.1-28.691H52.62V0H49.1Zm11.012,1.934h3.555v5.84h3.34v2.871h-3.34V-4.395a1.477,1.477,0,0,0,.742,1.465,3.155,3.155,0,0,0,1.367.215q.254,0,.547-.01t.684-.049V0a7.848,7.848,0,0,1-1.26.254,11.977,11.977,0,0,1-1.416.078Q61.874.332,61-.928A5.6,5.6,0,0,1,60.117-4.2V-18.047H57.285v-2.871h2.832Zm12.028,5.84h3.34V-17.3A7.983,7.983,0,0,1,77.5-19.873a5.216,5.216,0,0,1,3.691-1.514q.1,0,.332.02t.8.078v3.711a5.251,5.251,0,0,0-.576-.078q-.264-.02-.576-.02a5.017,5.017,0,0,0-4.082,1.709,5.965,5.965,0,0,0-1.426,3.936V0H72.144Z" transform="translate(136.213 42)"/>
  </g>
</svg>
