<svg xmlns="http://www.w3.org/2000/svg" width="24.105" height="19.574" viewBox="0 0 24.105 19.574">
  <path id="twitter" d="M24.1,59.758a9.876,9.876,0,0,1-2.839.778A4.966,4.966,0,0,0,23.44,57.8,9.968,9.968,0,0,1,20.3,59.007a4.948,4.948,0,0,0-8.426,4.509A14.039,14.039,0,0,1,1.68,58.345a4.95,4.95,0,0,0,1.534,6.6,4.946,4.946,0,0,1-2.24-.621v.061A4.949,4.949,0,0,0,4.94,69.235a5.009,5.009,0,0,1-1.306.173,4.746,4.746,0,0,1-.931-.091,4.947,4.947,0,0,0,4.62,3.434A9.921,9.921,0,0,1,1.183,74.86,10.5,10.5,0,0,1,0,74.8a13.978,13.978,0,0,0,7.58,2.225A13.972,13.972,0,0,0,21.649,62.953l-.017-.64A9.875,9.875,0,0,0,24.1,59.758Z" transform="translate(0 -57.448)" fill="#040404"/>
</svg>
